<svg xmlns="http://www.w3.org/2000/svg" width="22.742" height="22.627" viewBox="0 0 22.742 22.627"><defs><style>.a{fill:#ffcf2d;}</style></defs><g transform="translate(0 -0.261)"><path class="a" d="M20.99,51.168a.566.566,0,0,0-.566.566v5.029a1.7,1.7,0,0,1-1.7,1.7H2.832a1.7,1.7,0,0,1-1.7-1.7V42a1.7,1.7,0,0,1,1.7-1.7H7.861a.566.566,0,1,0,0-1.133H2.832A2.835,2.835,0,0,0,0,42v14.76A2.835,2.835,0,0,0,2.832,59.6H18.724a2.835,2.835,0,0,0,2.832-2.832V51.735a.566.566,0,0,0-.566-.566Zm0,0" transform="translate(0 -36.707)"/><path class="a" d="M123.394,1.007a2.549,2.549,0,0,0-3.6,0l-10.1,10.1a.566.566,0,0,0-.145.249l-1.329,4.8a.566.566,0,0,0,.7.7l4.8-1.329a.566.566,0,0,0,.249-.145l10.1-10.1a2.552,2.552,0,0,0,0-3.6ZM110.919,11.48l8.27-8.27,2.667,2.667-8.27,8.27Zm-.533,1.069,2.131,2.131-2.947.817Zm12.872-8.074-.6.6L119.99,2.409l.6-.6a1.416,1.416,0,0,1,2,0l.665.665A1.418,1.418,0,0,1,123.258,4.475Zm0,0" transform="translate(-102.062)"/></g></svg>