<svg xmlns="http://www.w3.org/2000/svg" width="18.51" height="18.808" viewBox="0 0 18.51 18.808">
  <path id="Icon_awesome-power-off" data-name="Icon awesome-power-off" d="M15.191,2.019a9.254,9.254,0,1,1-10.755,0,.9.9,0,0,1,1.306.287l.59,1.049a.9.9,0,0,1-.246,1.157,6.269,6.269,0,1,0,7.46,0A.89.89,0,0,1,13.3,3.359l.59-1.049a.894.894,0,0,1,1.3-.291ZM11.31,9.852V.9a.893.893,0,0,0-.9-.9H9.22a.893.893,0,0,0-.9.9V9.852a.893.893,0,0,0,.9.9h1.194A.893.893,0,0,0,11.31,9.852Z" transform="translate(-0.563)" opacity="0.6"/>
</svg>
