<svg xmlns="http://www.w3.org/2000/svg" width="35" height="35" viewBox="0 0 35 35">
  <g id="chats" transform="translate(-1534 -468)" opacity="0.7">
    <rect id="Rectangle_1382" data-name="Rectangle 1382" width="35" height="35" transform="translate(1534 468)" fill="none"/>
    <g id="megaphone" transform="translate(1539 476.324)">
      <path id="Path_3043" data-name="Path 3043" d="M424.223,92.964a.742.742,0,0,1,.741.741h1.482a2.227,2.227,0,0,0-1.482-2.1V90h-1.482v1.609a2.223,2.223,0,0,0,.741,4.319.741.741,0,1,1-.741.741H422a2.227,2.227,0,0,0,1.482,2.1v1.609h1.482V98.765a2.223,2.223,0,0,0-.741-4.319.741.741,0,0,1,0-1.482Zm0,0" transform="translate(-401.151 -85.554)" fill="#fff"/>
      <path id="Path_3044" data-name="Path 3044" d="M3.189,11.943a4.448,4.448,0,0,0,4.222,5.842H8.893a4.454,4.454,0,0,0,4.375-3.652c1.031.388,1.28.516,4.616,1.92v1.732h1.482V0H17.884V1.732c-1.959.676-7.587,4-16.4,4.188V4.446H0v8.893H1.482V11.865q.853.018,1.706.078Zm5.7,4.36H7.411a2.966,2.966,0,0,1-2.686-4.22,35.985,35.985,0,0,1,7.118,1.549A2.968,2.968,0,0,1,8.893,16.3ZM17.884,3.341v11.1a53.231,53.231,0,0,0-7.509-2.794V6.135a53.167,53.167,0,0,0,7.509-2.794ZM8.893,6.5v4.787a37.354,37.354,0,0,0-7.411-.9V7.4a37.352,37.352,0,0,0,7.411-.9Zm0,0" fill="#fff"/>
      <path id="Path_3045" data-name="Path 3045" d="M433.261,1.57l.663,1.326L430.96,4.378,430.3,3.052Zm0,0" transform="translate(-409.038 -1.493)" fill="#fff"/>
      <path id="Path_3046" data-name="Path 3046" d="M433.265,319.41l-2.964-1.482.663-1.326,2.964,1.482Zm0,0" transform="translate(-409.042 -300.961)" fill="#fff"/>
    </g>
  </g>
</svg>
